<?xml version="1.0" standalone="no"?>
<!DOCTYPE svg PUBLIC "-//W3C//DTD SVG 20010904//EN"
 "http://www.w3.org/TR/2001/REC-SVG-20010904/DTD/svg10.dtd">
<svg version="1.0" xmlns="http://www.w3.org/2000/svg"
 width="260.000000pt" height="260.000000pt" viewBox="0 0 260.000000 260.000000"
 preserveAspectRatio="xMidYMid meet">
<metadata>
Created by potrace 1.11, written by Peter Selinger 2001-2013
</metadata>
<g transform="translate(0.000000,260.000000) scale(0.100000,-0.100000)"
fill="#000000" stroke="none">
<path d="M0 1300 l0 -1300 1300 0 1300 0 0 1300 0 1300 -1300 0 -1300 0 0
-1300z m512 960 c69 -20 84 -48 238 -473 83 -227 147 -391 151 -384 4 7 73
186 153 397 80 212 154 396 164 410 36 49 75 60 214 60 70 0 138 -4 153 -10
51 -20 55 -47 55 -430 0 -192 2 -350 3 -350 2 0 31 14 64 30 178 89 471 95
655 13 89 -39 102 -59 106 -157 3 -69 1 -85 -16 -106 l-19 -24 -63 33 c-177
92 -361 111 -496 52 -50 -23 -119 -83 -149 -131 -78 -126 -92 -319 -35 -473
26 -69 97 -150 159 -181 95 -48 231 -57 316 -22 l35 15 0 135 0 136 -120 0
c-152 0 -160 6 -160 110 0 112 -6 110 266 110 l226 0 29 -29 29 -29 0 -281 c0
-161 -4 -291 -10 -306 -12 -31 -64 -56 -182 -87 -68 -18 -111 -22 -243 -23
-141 0 -169 3 -235 24 -224 70 -342 195 -406 430 -13 48 -16 149 -15 676 0
341 -3 613 -6 605 -3 -8 -84 -233 -179 -500 -104 -291 -181 -490 -191 -498
-23 -17 -213 -13 -235 6 -8 6 -91 232 -184 502 l-169 490 -2 -488 c-3 -573 9
-522 -128 -522 -46 0 -95 4 -109 10 l-26 10 0 592 c0 634 0 630 50 655 31 16
259 17 312 3z"/>
</g>
</svg>
